<svg width="26" height="26" viewBox="0 0 26 26" fill="none" xmlns="http://www.w3.org/2000/svg">
<path d="M5.66667 9.66667L10.3333 5.66667M15.6667 4.33333L19.6667 6.33333M21.6667 10.3333L18.3333 19.6667M15 20.3333L5.66667 13.6667M10.3333 3.66667C10.3333 4.37391 10.6143 5.05219 11.1144 5.55229C11.6145 6.05238 12.2928 6.33333 13 6.33333C13.7072 6.33333 14.3855 6.05238 14.8856 5.55229C15.3857 5.05219 15.6667 4.37391 15.6667 3.66667C15.6667 2.95942 15.3857 2.28115 14.8856 1.78105C14.3855 1.28095 13.7072 1 13 1C12.2928 1 11.6145 1.28095 11.1144 1.78105C10.6143 2.28115 10.3333 2.95942 10.3333 3.66667ZM19.6667 7.66667C19.6667 8.37391 19.9476 9.05219 20.4477 9.55228C20.9478 10.0524 21.6261 10.3333 22.3333 10.3333C23.0406 10.3333 23.7189 10.0524 24.219 9.55228C24.719 9.05219 25 8.37391 25 7.66667C25 6.95942 24.719 6.28115 24.219 5.78105C23.7189 5.28095 23.0406 5 22.3333 5C21.6261 5 20.9478 5.28095 20.4477 5.78105C19.9476 6.28115 19.6667 6.95942 19.6667 7.66667ZM1 11.6667C1 12.3739 1.28095 13.0522 1.78105 13.5523C2.28115 14.0524 2.95942 14.3333 3.66667 14.3333C4.37391 14.3333 5.05219 14.0524 5.55229 13.5523C6.05238 13.0522 6.33333 12.3739 6.33333 11.6667C6.33333 10.9594 6.05238 10.2811 5.55229 9.78105C5.05219 9.28095 4.37391 9 3.66667 9C2.95942 9 2.28115 9.28095 1.78105 9.78105C1.28095 10.2811 1 10.9594 1 11.6667ZM14.3333 22.3333C14.3333 23.0406 14.6143 23.7189 15.1144 24.219C15.6145 24.719 16.2928 25 17 25C17.7072 25 18.3855 24.719 18.8856 24.219C19.3857 23.7189 19.6667 23.0406 19.6667 22.3333C19.6667 21.6261 19.3857 20.9478 18.8856 20.4477C18.3855 19.9476 17.7072 19.6667 17 19.6667C16.2928 19.6667 15.6145 19.9476 15.1144 20.4477C14.6143 20.9478 14.3333 21.6261 14.3333 22.3333Z" stroke="#0075FF" stroke-width="2" stroke-linecap="round" stroke-linejoin="round"/>
</svg>
