<svg width="3311" height="3310" viewBox="0 0 3311 3310" fill="none" xmlns="http://www.w3.org/2000/svg">
<g opacity="0.4">
<path d="M699.92 2701.31L697.016 2698.65L694.364 2701.56L689.571 2706.8L686.919 2709.71L689.823 2712.36C1077.15 3066.13 1626.88 3179.86 2122.79 3008.82C2618.69 2837.78 2981.43 2409.34 3068.32 1892.02L3068.97 1888.14L3065.09 1887.49L3058.09 1886.31L3054.21 1885.66L3053.56 1889.54C2967.57 2401.46 2608.63 2825.42 2117.91 2994.67C1627.19 3163.92 1083.2 3051.37 699.92 2701.31Z" fill="#8F00FF" stroke="#8F00FF" stroke-width="7.86565" stroke-miterlimit="10" stroke-linecap="square"/>
<path d="M1362.83 268.007L1366.68 267.194L1365.87 263.346L1364.4 256.393L1363.59 252.545L1359.74 253.358C696.296 393.508 222.035 979.672 223.451 1657.75L223.459 1661.69L227.392 1661.68L234.499 1661.66L238.431 1661.66L238.423 1657.72C237.022 986.729 706.325 406.692 1362.83 268.007Z" fill="#00FF0A" stroke="#00FF0A" stroke-width="7.86565" stroke-miterlimit="10" stroke-linecap="square"/>
<path d="M2573.63 574.718L2576.17 571.715L2580.75 566.287L2583.29 563.283L2580.29 560.744C2242.67 275.438 1792.23 161.997 1359.74 253.358L1355.9 254.171L1356.71 258.019L1358.18 264.972L1358.99 268.82L1362.84 268.007C1790.8 177.601 2236.53 289.856 2570.62 572.18L2573.63 574.718Z" fill="#DBFF00" stroke="#DBFF00" stroke-width="7.86565" stroke-miterlimit="10" stroke-linecap="square"/>
<path d="M238.428 1657.72L238.42 1653.79L234.487 1653.8L227.38 1653.81L223.448 1653.82L223.456 1657.75C224.294 2059.1 393.485 2441.69 689.832 2712.36L692.736 2715.01L695.388 2712.11L700.181 2706.86L702.833 2703.96L699.929 2701.3C406.68 2433.47 239.258 2054.88 238.428 1657.72Z" fill="#0085FF" stroke="#0085FF" stroke-width="7.86565" stroke-miterlimit="10" stroke-linecap="square"/>
<path d="M3062.63 1482.49L3063.11 1486.39L3067.02 1485.91L3074.07 1485.05L3077.97 1484.57L3077.5 1480.67C3033.61 1122.32 2856.03 793.766 2580.28 560.745L2577.28 558.206L2574.74 561.21L2570.15 566.638L2567.61 569.642L2570.62 572.181C2843.49 802.766 3019.21 1127.89 3062.63 1482.49Z" fill="#FF8A00" stroke="#FF8A00" stroke-width="7.86565" stroke-miterlimit="10" stroke-linecap="square"/>
<path d="M2046.4 292.29L2050.18 293.374L2051.27 289.594L2053.22 282.762L2054.31 278.982L2050.53 277.898C1825.72 213.448 1588.56 205.022 1359.74 253.358L1355.9 254.171L1356.71 258.019L1358.18 264.972L1358.99 268.82L1362.84 268.007C1589.26 220.176 1823.95 228.514 2046.4 292.29Z" fill="#DBFF00" stroke="#DBFF00" stroke-width="7.86565" stroke-miterlimit="10" stroke-linecap="square"/>
<path d="M3073.09 1666.28L3073.06 1670.21L3077 1670.24L3084.1 1670.3L3088.03 1670.33L3088.07 1666.4C3088.57 1604.32 3085.04 1542.28 3077.49 1480.67L3077.02 1476.76L3073.11 1477.24L3066.06 1478.11L3062.15 1478.58L3062.63 1482.49C3070.1 1543.46 3073.59 1604.85 3073.09 1666.28Z" fill="#FF0000" stroke="#FF0000" stroke-width="7.86565" stroke-miterlimit="10" stroke-linecap="square"/>
<g opacity="0.2">
<path d="M918.858 2482.5L922.553 2478.46C1218.86 2749.09 1639.41 2836.1 2018.78 2705.26C2398.15 2574.41 2675.65 2246.65 2742.12 1850.89L2747.53 1851.8C2680.72 2249.54 2401.84 2578.94 2020.57 2710.43C1639.3 2841.93 1216.65 2754.49 918.858 2482.5Z" fill="#8F00FF"/>
<path d="M1434.45 1935.44L1435.53 1934.25C1522.38 2013.57 1645.64 2039.07 1756.83 2000.72C1868.03 1962.37 1949.36 1866.31 1968.84 1750.31L1970.42 1750.58C1950.84 1867.15 1869.1 1963.7 1757.36 2002.24C1645.61 2040.78 1521.73 2015.15 1434.45 1935.44Z" fill="#8F00FF"/>
<path d="M922.553 2478.46C1218.86 2749.09 1639.41 2836.1 2018.78 2705.26C2398.15 2574.41 2675.65 2246.65 2742.12 1850.89L1970.42 1750.58C1950.84 1867.15 1869.1 1963.7 1757.36 2002.24C1645.61 2040.78 1521.73 2015.15 1434.45 1935.44L922.553 2478.46Z" fill="#8F00FF"/>
</g>
<g opacity="0.2">
<path d="M1433.91 591.943L1435.04 597.304C927.504 704.52 564.691 1152.94 565.774 1671.68L560.295 1671.69C559.206 1150.36 923.834 699.695 1433.91 591.943Z" fill="#00FF0A"/>
<path d="M1585.41 1381.32L1585.74 1382.89C1436.99 1414.32 1330.65 1545.75 1330.96 1697.79L1329.36 1697.79C1329.04 1544.99 1435.91 1412.9 1585.41 1381.32Z" fill="#00FF0A"/>
<path d="M1435.04 597.304C927.504 704.52 564.691 1152.94 565.774 1671.68L1329.36 1697.79C1329.04 1544.99 1435.91 1412.9 1585.41 1381.32L1435.04 597.304Z" fill="#00FF0A"/>
</g>
<g opacity="0.2">
<path d="M2372.3 828.272L2368.77 832.457C2110.48 614.195 1765.9 527.413 1435.04 597.304L1433.91 591.944C1766.42 521.703 2112.73 608.919 2372.3 828.272Z" fill="#DBFF00"/>
<path d="M1860.45 1450.59L1859.41 1451.82C1783.71 1387.84 1682.71 1362.41 1585.74 1382.89L1585.41 1381.32C1682.86 1360.73 1784.37 1386.3 1860.45 1450.59Z" fill="#DBFF00"/>
<path d="M2368.77 832.457C2110.48 614.195 1765.9 527.413 1435.04 597.304L1585.41 1381.32C1682.86 1360.73 1784.37 1386.3 1860.45 1450.59L2368.77 832.457Z" fill="#DBFF00"/>
</g>
<g opacity="0.2">
<path d="M1329.36 1697.79L1330.96 1697.79C1331.15 1787.78 1369.09 1873.56 1435.53 1934.25L1434.45 1935.43C1367.67 1874.44 1329.55 1788.23 1329.36 1697.79Z" fill="#0085FF"/>
<path d="M560.296 1671.69L565.775 1671.68C566.416 1978.71 695.848 2271.4 922.557 2478.46L918.862 2482.5C691.02 2274.41 560.941 1980.26 560.296 1671.69Z" fill="#0085FF"/>
<path d="M1434.45 1935.43C1367.67 1874.44 1329.55 1788.23 1329.36 1697.79L565.775 1671.68C566.416 1978.71 695.848 2271.4 922.557 2478.46L1434.45 1935.43Z" fill="#0085FF"/>
</g>
<g opacity="0.2">
<path d="M2754.57 1535.54L2749.14 1536.21C2715.57 1262.07 2579.71 1010.72 2368.76 832.458L2372.3 828.273C2584.3 1007.43 2720.84 1260.03 2754.57 1535.54Z" fill="#FF8A00"/>
<path d="M1972.49 1657.89L1970.9 1658.08C1961.06 1577.73 1921.24 1504.06 1859.41 1451.82L1860.45 1450.59C1922.58 1503.1 1962.6 1577.14 1972.49 1657.89Z" fill="#FF8A00"/>
<path d="M2749.14 1536.21C2715.57 1262.07 2579.71 1010.72 2368.76 832.458L1860.45 1450.59C1922.58 1503.1 1962.6 1577.14 1972.49 1657.89L2749.14 1536.21Z" fill="#FF8A00"/>
</g>
<g opacity="0.2">
<path d="M2762.7 1678.34L2757.22 1678.29C2757.61 1630.8 2754.91 1583.34 2749.14 1536.21L2754.57 1535.54C2760.38 1582.91 2763.09 1630.61 2762.7 1678.34Z" fill="#FF0000"/>
<path d="M1974.87 1699.74L1973.26 1699.73C1973.38 1685.81 1972.59 1671.9 1970.89 1658.08L1972.49 1657.89C1974.19 1671.75 1974.98 1685.71 1974.87 1699.68C1974.87 1699.7 1974.87 1699.72 1974.87 1699.74Z" fill="#FF0000"/>
<path d="M2757.22 1678.29C2757.61 1630.8 2754.91 1583.34 2749.14 1536.21L1972.49 1657.89C1974.19 1671.75 1974.98 1685.71 1974.87 1699.68L2757.22 1678.29Z" fill="#FF0000"/>
</g>
</g>
</svg>
