<svg width="27" height="26" viewBox="0 0 27 26" fill="none" xmlns="http://www.w3.org/2000/svg">
<path d="M12.8706 22.3293L3.40338 12.4316C2.77893 11.7901 2.28706 11.0191 1.95874 10.1672C1.63043 9.31521 1.47278 8.40071 1.49572 7.48127C1.51866 6.56183 1.7217 5.65736 2.09205 4.82483C2.4624 3.99229 2.99204 3.24971 3.64761 2.64387C4.30319 2.03802 5.0705 1.58202 5.90122 1.30458C6.73194 1.02715 7.60809 0.934289 8.47448 1.03185C9.34087 1.12941 10.1787 1.41528 10.9353 1.87146C11.6919 2.32763 12.3508 2.94424 12.8706 3.68243C13.8838 2.27591 15.3848 1.35187 17.0434 1.1136C18.7021 0.875335 20.3824 1.34235 21.7148 2.41191C23.0473 3.48146 23.9226 5.06596 24.1484 6.81681C24.3741 8.56767 23.9317 10.3415 22.9184 11.748M17.9198 20.9968H25.4935M21.7066 16.9993V24.9943" stroke="white" stroke-width="2" stroke-linecap="round" stroke-linejoin="round"/>
</svg>
