<svg width="1228" height="1267" viewBox="0 0 1228 1267" fill="none" xmlns="http://www.w3.org/2000/svg">
<circle opacity="0.1" cx="624.5" cy="634.5" r="264.173" fill="#EAF4FF" stroke="#003C83" stroke-width="0.653775" stroke-dasharray="1.31 1.31"/>
<circle opacity="0.2" cx="624.5" cy="634.499" r="231.232" fill="#EAF4FF" stroke="#003C83" stroke-width="0.653775" stroke-dasharray="1.31 1.31"/>
<circle opacity="0.4" cx="624.5" cy="634.5" r="199.259" fill="#EAF4FF" stroke="#003C83" stroke-width="0.653775" stroke-dasharray="1.31 1.31"/>
<circle opacity="0.4" cx="624.5" cy="634.501" r="171.162" fill="#EAF4FF" stroke="#003C83" stroke-width="0.653775" stroke-dasharray="1.31 1.31"/>
<circle opacity="0.4" cx="624.5" cy="634.501" r="140.158" fill="#EAF4FF" stroke="#003C83" stroke-width="0.653775" stroke-dasharray="1.31 1.31"/>
<circle opacity="0.4" cx="624.5" cy="634.5" r="111.093" fill="#EAF4FF" stroke="#003C83" stroke-width="0.653775" stroke-dasharray="1.31 1.31"/>
<circle opacity="0.4" cx="624.499" cy="634.5" r="81.0577" fill="#EAF4FF" stroke="#003C83" stroke-width="0.653775" stroke-dasharray="1.31 1.31"/>
<circle opacity="0.4" cx="624.5" cy="634.499" r="51.0229" fill="#EAF4FF" stroke="#003C83" stroke-width="0.653775" stroke-dasharray="1.31 1.31"/>
<path d="M655.76 638.341C655.76 638.849 655.598 639.242 655.276 639.521C654.953 639.799 654.492 639.938 653.893 639.938C653.335 639.938 652.89 639.813 652.557 639.563C652.226 639.311 652.029 638.938 651.967 638.446L652.694 638.38C652.787 639.031 653.187 639.356 653.893 639.356C654.247 639.356 654.524 639.269 654.725 639.095C654.928 638.92 655.029 638.661 655.029 638.317C655.029 638.018 654.914 637.785 654.682 637.618C654.453 637.449 654.121 637.364 653.686 637.364H653.287V636.755H653.67C654.056 636.755 654.354 636.672 654.565 636.505C654.778 636.336 654.885 636.103 654.885 635.806C654.885 635.511 654.798 635.28 654.623 635.11C654.451 634.938 654.195 634.853 653.854 634.853C653.544 634.853 653.293 634.932 653.1 635.091C652.91 635.25 652.799 635.474 652.768 635.763L652.061 635.708C652.113 635.257 652.299 634.906 652.619 634.653C652.942 634.401 653.356 634.274 653.862 634.274C654.414 634.274 654.842 634.403 655.147 634.661C655.454 634.916 655.608 635.273 655.608 635.731C655.608 636.083 655.509 636.369 655.311 636.591C655.115 636.81 654.83 636.958 654.455 637.036V637.052C654.867 637.096 655.187 637.234 655.416 637.466C655.645 637.698 655.76 637.989 655.76 638.341ZM660.252 637.106C660.252 638.026 660.089 638.728 659.764 639.212C659.441 639.696 658.963 639.938 658.33 639.938C657.697 639.938 657.222 639.698 656.904 639.216C656.587 638.734 656.428 638.031 656.428 637.106C656.428 636.161 656.582 635.453 656.889 634.981C657.199 634.51 657.687 634.274 658.354 634.274C659.002 634.274 659.48 634.513 659.787 634.989C660.097 635.466 660.252 636.172 660.252 637.106ZM659.537 637.106C659.537 636.575 659.497 636.144 659.416 635.813C659.338 635.48 659.212 635.235 659.037 635.079C658.863 634.923 658.635 634.845 658.354 634.845C658.067 634.845 657.834 634.922 657.654 635.075C657.475 635.229 657.343 635.472 657.26 635.806C657.179 636.136 657.139 636.57 657.139 637.106C657.139 637.627 657.181 638.054 657.264 638.388C657.35 638.721 657.481 638.967 657.658 639.126C657.835 639.285 658.062 639.364 658.338 639.364C658.752 639.364 659.056 639.179 659.248 638.81C659.441 638.44 659.537 637.872 659.537 637.106ZM664.115 636.188V639.86H663.451V634.356H664.432L665.897 638.173C665.949 638.326 665.998 638.492 666.045 638.669C666.095 638.843 666.127 638.97 666.143 639.048C666.158 638.978 666.184 638.881 666.221 638.759C666.257 638.634 666.294 638.514 666.33 638.399C666.367 638.285 666.393 638.209 666.408 638.173L667.846 634.356H668.803V639.86H668.131V636.188C668.131 635.985 668.134 635.786 668.139 635.591C668.147 635.396 668.156 635.204 668.166 635.017C668.101 635.248 668.04 635.457 667.983 635.642C667.928 635.824 667.875 635.98 667.822 636.11L666.401 639.86H665.877L664.436 636.11L664.088 635.017C664.093 635.212 664.098 635.407 664.104 635.603C664.112 635.798 664.115 635.993 664.115 636.188ZM671.076 639.938C670.652 639.938 670.333 639.826 670.119 639.603C669.906 639.379 669.799 639.071 669.799 638.681C669.799 638.243 669.942 637.907 670.229 637.673C670.518 637.438 670.983 637.313 671.623 637.298L672.572 637.282V637.052C672.572 636.708 672.5 636.462 672.354 636.313C672.208 636.165 671.979 636.091 671.666 636.091C671.351 636.091 671.122 636.144 670.979 636.251C670.835 636.358 670.75 636.528 670.721 636.763L669.987 636.696C670.106 635.936 670.671 635.556 671.682 635.556C672.213 635.556 672.613 635.678 672.881 635.923C673.149 636.165 673.283 636.517 673.283 636.978V638.798C673.283 639.006 673.311 639.164 673.365 639.271C673.42 639.375 673.524 639.427 673.678 639.427C673.751 639.427 673.828 639.418 673.908 639.399V639.837C673.82 639.858 673.73 639.873 673.639 639.884C673.548 639.894 673.457 639.899 673.365 639.899C673.105 639.899 672.915 639.832 672.795 639.696C672.678 639.558 672.612 639.343 672.596 639.052H672.572C672.393 639.375 672.183 639.604 671.944 639.739C671.707 639.872 671.418 639.938 671.076 639.938ZM672.572 637.774L671.803 637.79C671.475 637.793 671.225 637.826 671.053 637.892C670.881 637.954 670.75 638.05 670.658 638.181C670.567 638.311 670.522 638.481 670.522 638.692C670.522 638.922 670.583 639.099 670.705 639.224C670.83 639.349 671.007 639.411 671.237 639.411C671.497 639.411 671.726 639.353 671.924 639.235C672.125 639.118 672.282 638.958 672.397 638.755C672.514 638.549 672.572 638.338 672.572 638.122V637.774Z" fill="#003C83"/>
<path d="M685.743 639.263V639.86H682.099V639.364C682.232 639.06 682.392 638.79 682.579 638.556C682.769 638.321 682.971 638.11 683.185 637.923C683.398 637.735 683.609 637.561 683.818 637.399C683.922 637.319 684.019 637.238 684.111 637.157C684.204 637.076 684.293 636.996 684.376 636.915C684.543 636.754 684.677 636.584 684.779 636.407C684.883 636.23 684.935 636.03 684.935 635.806C684.935 635.504 684.846 635.269 684.669 635.103C684.492 634.936 684.246 634.853 683.931 634.853C683.631 634.853 683.384 634.935 683.189 635.099C682.996 635.26 682.883 635.488 682.849 635.782L682.13 635.716C682.182 635.276 682.368 634.925 682.689 634.665C683.012 634.405 683.426 634.274 683.931 634.274C684.486 634.274 684.911 634.406 685.208 634.669C685.508 634.929 685.657 635.3 685.657 635.782C685.657 635.996 685.608 636.208 685.509 636.419C685.413 636.63 685.268 636.841 685.075 637.052C684.979 637.156 684.838 637.29 684.654 637.454C684.469 637.618 684.241 637.811 683.97 638.032C683.67 638.277 683.432 638.498 683.255 638.696C683.078 638.892 682.95 639.08 682.872 639.263H685.743ZM690.263 638.067C690.263 638.648 690.09 639.105 689.743 639.438C689.4 639.772 688.922 639.938 688.31 639.938C687.797 639.938 687.383 639.826 687.068 639.603C686.752 639.379 686.553 639.054 686.47 638.63L687.181 638.548C687.256 638.819 687.389 639.023 687.579 639.161C687.769 639.297 688.018 639.364 688.325 639.364C688.703 639.364 688.999 639.251 689.212 639.024C689.426 638.795 689.532 638.481 689.532 638.083C689.532 637.737 689.424 637.457 689.208 637.243C688.995 637.03 688.706 636.923 688.341 636.923C688.151 636.923 687.974 636.953 687.81 637.013C687.646 637.073 687.482 637.174 687.318 637.317H686.63L686.814 634.356H689.943V634.954H687.454L687.349 636.7C687.654 636.466 688.032 636.349 688.486 636.349C688.848 636.349 689.161 636.422 689.427 636.567C689.693 636.711 689.898 636.911 690.044 637.169C690.19 637.427 690.263 637.726 690.263 638.067ZM694.15 636.188V639.86H693.486V634.356H694.466L695.931 638.173C695.983 638.326 696.032 638.492 696.079 638.669C696.129 638.843 696.161 638.97 696.177 639.048C696.193 638.978 696.219 638.881 696.255 638.759C696.292 638.634 696.328 638.514 696.364 638.399C696.401 638.285 696.427 638.209 696.443 638.173L697.88 634.356H698.837V639.86H698.165V636.188C698.165 635.985 698.168 635.786 698.173 635.591C698.181 635.396 698.19 635.204 698.2 635.017C698.135 635.248 698.074 635.457 698.017 635.642C697.962 635.824 697.909 635.98 697.857 636.11L696.435 639.86H695.911L694.47 636.11L694.122 635.017C694.127 635.212 694.133 635.407 694.138 635.603C694.146 635.798 694.15 635.993 694.15 636.188ZM701.111 639.938C700.686 639.938 700.367 639.826 700.154 639.603C699.94 639.379 699.833 639.071 699.833 638.681C699.833 638.243 699.976 637.907 700.263 637.673C700.552 637.438 701.017 637.313 701.657 637.298L702.607 637.282V637.052C702.607 636.708 702.534 636.462 702.388 636.313C702.242 636.165 702.013 636.091 701.7 636.091C701.385 636.091 701.156 636.144 701.013 636.251C700.87 636.358 700.784 636.528 700.755 636.763L700.021 636.696C700.14 635.936 700.706 635.556 701.716 635.556C702.247 635.556 702.647 635.678 702.915 635.923C703.183 636.165 703.318 636.517 703.318 636.978V638.798C703.318 639.006 703.345 639.164 703.4 639.271C703.454 639.375 703.558 639.427 703.712 639.427C703.785 639.427 703.862 639.418 703.943 639.399V639.837C703.854 639.858 703.764 639.873 703.673 639.884C703.582 639.894 703.491 639.899 703.4 639.899C703.139 639.899 702.949 639.832 702.829 639.696C702.712 639.558 702.646 639.343 702.63 639.052H702.607C702.427 639.375 702.217 639.604 701.978 639.739C701.741 639.872 701.452 639.938 701.111 639.938ZM702.607 637.774L701.837 637.79C701.509 637.793 701.259 637.826 701.087 637.892C700.915 637.954 700.784 638.05 700.693 638.181C700.601 638.311 700.556 638.481 700.556 638.692C700.556 638.922 700.617 639.099 700.739 639.224C700.864 639.349 701.042 639.411 701.271 639.411C701.531 639.411 701.76 639.353 701.958 639.235C702.159 639.118 702.316 638.958 702.431 638.755C702.548 638.549 702.607 638.338 702.607 638.122V637.774Z" fill="#003C83"/>
<path d="M715.779 639.263V639.86H712.134V639.364C712.267 639.06 712.427 638.79 712.614 638.556C712.805 638.321 713.006 638.11 713.22 637.923C713.433 637.735 713.644 637.561 713.853 637.399C713.957 637.319 714.055 637.238 714.146 637.157C714.239 637.076 714.328 636.996 714.411 636.915C714.578 636.754 714.712 636.584 714.814 636.407C714.918 636.23 714.97 636.03 714.97 635.806C714.97 635.504 714.881 635.269 714.704 635.103C714.527 634.936 714.281 634.853 713.966 634.853C713.667 634.853 713.419 634.935 713.224 635.099C713.031 635.26 712.918 635.488 712.884 635.782L712.165 635.716C712.217 635.276 712.404 634.925 712.724 634.665C713.047 634.405 713.461 634.274 713.966 634.274C714.521 634.274 714.946 634.406 715.243 634.669C715.543 634.929 715.693 635.3 715.693 635.782C715.693 635.996 715.643 636.208 715.544 636.419C715.448 636.63 715.303 636.841 715.111 637.052C715.014 637.156 714.874 637.29 714.689 637.454C714.504 637.618 714.276 637.811 714.005 638.032C713.706 638.277 713.467 638.498 713.29 638.696C713.113 638.892 712.986 639.08 712.907 639.263H715.779ZM720.321 637.106C720.321 638.026 720.159 638.728 719.833 639.212C719.51 639.696 719.032 639.938 718.4 639.938C717.767 639.938 717.292 639.698 716.974 639.216C716.656 638.734 716.497 638.031 716.497 637.106C716.497 636.161 716.651 635.453 716.958 634.981C717.268 634.51 717.756 634.274 718.423 634.274C719.071 634.274 719.549 634.513 719.857 634.989C720.167 635.466 720.321 636.172 720.321 637.106ZM719.607 637.106C719.607 636.575 719.566 636.144 719.486 635.813C719.407 635.48 719.281 635.235 719.107 635.079C718.932 634.923 718.704 634.845 718.423 634.845C718.137 634.845 717.904 634.922 717.724 635.075C717.544 635.229 717.413 635.472 717.329 635.806C717.249 636.136 717.208 636.57 717.208 637.106C717.208 637.627 717.25 638.054 717.333 638.388C717.419 638.721 717.551 638.967 717.728 639.126C717.905 639.285 718.131 639.364 718.407 639.364C718.821 639.364 719.125 639.179 719.318 638.81C719.51 638.44 719.607 637.872 719.607 637.106ZM724.185 636.188V639.86H723.521V634.356H724.501L725.966 638.173C726.018 638.326 726.068 638.492 726.114 638.669C726.164 638.843 726.196 638.97 726.212 639.048C726.228 638.978 726.254 638.881 726.29 638.759C726.327 638.634 726.363 638.514 726.4 638.399C726.436 638.285 726.462 638.209 726.478 638.173L727.915 634.356H728.872V639.86H728.2V636.188C728.2 635.985 728.203 635.786 728.208 635.591C728.216 635.396 728.225 635.204 728.236 635.017C728.17 635.248 728.109 635.457 728.052 635.642C727.997 635.824 727.944 635.98 727.892 636.11L726.47 639.86H725.946L724.505 636.11L724.157 635.017C724.163 635.212 724.168 635.407 724.173 635.603C724.181 635.798 724.185 635.993 724.185 636.188ZM731.146 639.938C730.721 639.938 730.402 639.826 730.189 639.603C729.975 639.379 729.868 639.071 729.868 638.681C729.868 638.243 730.012 637.907 730.298 637.673C730.587 637.438 731.052 637.313 731.693 637.298L732.642 637.282V637.052C732.642 636.708 732.569 636.462 732.423 636.313C732.277 636.165 732.048 636.091 731.736 636.091C731.42 636.091 731.191 636.144 731.048 636.251C730.905 636.358 730.819 636.528 730.79 636.763L730.056 636.696C730.176 635.936 730.741 635.556 731.751 635.556C732.282 635.556 732.682 635.678 732.95 635.923C733.219 636.165 733.353 636.517 733.353 636.978V638.798C733.353 639.006 733.38 639.164 733.435 639.271C733.489 639.375 733.594 639.427 733.747 639.427C733.82 639.427 733.897 639.418 733.978 639.399V639.837C733.889 639.858 733.799 639.873 733.708 639.884C733.617 639.894 733.526 639.899 733.435 639.899C733.174 639.899 732.984 639.832 732.864 639.696C732.747 639.558 732.681 639.343 732.665 639.052H732.642C732.462 639.375 732.252 639.604 732.013 639.739C731.776 639.872 731.487 639.938 731.146 639.938ZM732.642 637.774L731.872 637.79C731.544 637.793 731.294 637.826 731.122 637.892C730.95 637.954 730.819 638.05 730.728 638.181C730.637 638.311 730.591 638.481 730.591 638.692C730.591 638.922 730.652 639.099 730.775 639.224C730.9 639.349 731.077 639.411 731.306 639.411C731.566 639.411 731.795 639.353 731.993 639.235C732.194 639.118 732.351 638.958 732.466 638.755C732.583 638.549 732.642 638.338 732.642 638.122V637.774Z" fill="#003C83"/>
<path d="M745.825 639.263V639.86H742.376V639.263H743.779V635.028L742.536 635.915V635.251L743.837 634.356H744.486V639.263H745.825ZM750.333 638.067C750.333 638.648 750.16 639.105 749.814 639.438C749.47 639.772 748.992 639.938 748.38 639.938C747.867 639.938 747.453 639.826 747.138 639.603C746.823 639.379 746.624 639.054 746.54 638.63L747.251 638.548C747.327 638.819 747.46 639.023 747.65 639.161C747.84 639.297 748.088 639.364 748.396 639.364C748.773 639.364 749.069 639.251 749.282 639.024C749.496 638.795 749.603 638.481 749.603 638.083C749.603 637.737 749.495 637.457 749.279 637.243C749.065 637.03 748.776 636.923 748.411 636.923C748.221 636.923 748.044 636.953 747.88 637.013C747.716 637.073 747.552 637.174 747.388 637.317H746.7L746.884 634.356H750.013V634.954H747.525L747.419 636.7C747.724 636.466 748.103 636.349 748.556 636.349C748.918 636.349 749.232 636.422 749.497 636.567C749.763 636.711 749.969 636.911 750.114 637.169C750.26 637.427 750.333 637.726 750.333 638.067ZM754.22 636.188V639.86H753.556V634.356H754.536L756.001 638.173C756.053 638.326 756.103 638.492 756.15 638.669C756.199 638.843 756.232 638.97 756.247 639.048C756.263 638.978 756.289 638.881 756.325 638.759C756.362 638.634 756.398 638.514 756.435 638.399C756.471 638.285 756.497 638.209 756.513 638.173L757.95 634.356H758.907V639.86H758.236V636.188C758.236 635.985 758.238 635.786 758.243 635.591C758.251 635.396 758.26 635.204 758.271 635.017C758.206 635.248 758.144 635.457 758.087 635.642C758.032 635.824 757.979 635.98 757.927 636.11L756.505 639.86H755.982L754.54 636.11L754.193 635.017C754.198 635.212 754.203 635.407 754.208 635.603C754.216 635.798 754.22 635.993 754.22 636.188ZM761.181 639.938C760.756 639.938 760.437 639.826 760.224 639.603C760.01 639.379 759.904 639.071 759.904 638.681C759.904 638.243 760.047 637.907 760.333 637.673C760.622 637.438 761.087 637.313 761.728 637.298L762.677 637.282V637.052C762.677 636.708 762.604 636.462 762.458 636.313C762.312 636.165 762.083 636.091 761.771 636.091C761.456 636.091 761.226 636.144 761.083 636.251C760.94 636.358 760.854 636.528 760.825 636.763L760.091 636.696C760.211 635.936 760.776 635.556 761.786 635.556C762.318 635.556 762.717 635.678 762.986 635.923C763.254 636.165 763.388 636.517 763.388 636.978V638.798C763.388 639.006 763.415 639.164 763.47 639.271C763.525 639.375 763.629 639.427 763.782 639.427C763.855 639.427 763.932 639.418 764.013 639.399V639.837C763.924 639.858 763.835 639.873 763.743 639.884C763.652 639.894 763.561 639.899 763.47 639.899C763.21 639.899 763.019 639.832 762.9 639.696C762.782 639.558 762.716 639.343 762.7 639.052H762.677C762.497 639.375 762.288 639.604 762.048 639.739C761.811 639.872 761.522 639.938 761.181 639.938ZM762.677 637.774L761.907 637.79C761.579 637.793 761.329 637.826 761.157 637.892C760.986 637.954 760.854 638.05 760.763 638.181C760.672 638.311 760.626 638.481 760.626 638.692C760.626 638.922 760.687 639.099 760.81 639.224C760.935 639.349 761.112 639.411 761.341 639.411C761.601 639.411 761.831 639.353 762.029 639.235C762.229 639.118 762.387 638.958 762.501 638.755C762.618 638.549 762.677 638.338 762.677 638.122V637.774Z" fill="#003C83"/>
<path d="M775.86 639.263V639.86H772.411V639.263H773.813V635.028L772.571 635.915V635.251L773.872 634.356H774.52V639.263H775.86ZM780.391 637.106C780.391 638.026 780.229 638.728 779.903 639.212C779.58 639.696 779.102 639.938 778.469 639.938C777.837 639.938 777.361 639.698 777.044 639.216C776.726 638.734 776.567 638.031 776.567 637.106C776.567 636.161 776.721 635.453 777.028 634.981C777.338 634.51 777.826 634.274 778.493 634.274C779.141 634.274 779.619 634.513 779.926 634.989C780.236 635.466 780.391 636.172 780.391 637.106ZM779.676 637.106C779.676 636.575 779.636 636.144 779.555 635.813C779.477 635.48 779.351 635.235 779.176 635.079C779.002 634.923 778.774 634.845 778.493 634.845C778.206 634.845 777.973 634.922 777.794 635.075C777.614 635.229 777.482 635.472 777.399 635.806C777.318 636.136 777.278 636.57 777.278 637.106C777.278 637.627 777.32 638.054 777.403 638.388C777.489 638.721 777.62 638.967 777.798 639.126C777.975 639.285 778.201 639.364 778.477 639.364C778.891 639.364 779.195 639.179 779.387 638.81C779.58 638.44 779.676 637.872 779.676 637.106ZM784.255 636.188V639.86H783.591V634.356H784.571L786.036 638.173C786.088 638.326 786.137 638.492 786.184 638.669C786.234 638.843 786.266 638.97 786.282 639.048C786.298 638.978 786.324 638.881 786.36 638.759C786.397 638.634 786.433 638.514 786.469 638.399C786.506 638.285 786.532 638.209 786.548 638.173L787.985 634.356H788.942V639.86H788.27V636.188C788.27 635.985 788.273 635.786 788.278 635.591C788.286 635.396 788.295 635.204 788.305 635.017C788.24 635.248 788.179 635.457 788.122 635.642C788.067 635.824 788.014 635.98 787.962 636.11L786.54 639.86H786.016L784.575 636.11L784.227 635.017C784.232 635.212 784.238 635.407 784.243 635.603C784.251 635.798 784.255 635.993 784.255 636.188ZM791.216 639.938C790.791 639.938 790.472 639.826 790.258 639.603C790.045 639.379 789.938 639.071 789.938 638.681C789.938 638.243 790.081 637.907 790.368 637.673C790.657 637.438 791.122 637.313 791.762 637.298L792.712 637.282V637.052C792.712 636.708 792.639 636.462 792.493 636.313C792.347 636.165 792.118 636.091 791.805 636.091C791.49 636.091 791.261 636.144 791.118 636.251C790.975 636.358 790.889 636.528 790.86 636.763L790.126 636.696C790.245 635.936 790.811 635.556 791.821 635.556C792.352 635.556 792.752 635.678 793.02 635.923C793.288 636.165 793.423 636.517 793.423 636.978V638.798C793.423 639.006 793.45 639.164 793.505 639.271C793.559 639.375 793.663 639.427 793.817 639.427C793.89 639.427 793.967 639.418 794.048 639.399V639.837C793.959 639.858 793.869 639.873 793.778 639.884C793.687 639.894 793.596 639.899 793.505 639.899C793.244 639.899 793.054 639.832 792.934 639.696C792.817 639.558 792.751 639.343 792.735 639.052H792.712C792.532 639.375 792.322 639.604 792.083 639.739C791.846 639.872 791.557 639.938 791.216 639.938ZM792.712 637.774L791.942 637.79C791.614 637.793 791.364 637.826 791.192 637.892C791.02 637.954 790.889 638.05 790.798 638.181C790.706 638.311 790.661 638.481 790.661 638.692C790.661 638.922 790.722 639.099 790.844 639.224C790.969 639.349 791.147 639.411 791.376 639.411C791.636 639.411 791.865 639.353 792.063 639.235C792.264 639.118 792.421 638.958 792.536 638.755C792.653 638.549 792.712 638.338 792.712 638.122V637.774Z" fill="#003C83"/>
<path d="M965.755 950.376L964.743 951.484L965.851 952.495L967.617 954.108L968.724 955.12L969.736 954.012C1088.84 823.611 1127.13 638.534 1069.54 471.579C1011.96 304.624 867.72 182.502 693.553 153.249L692.074 153L691.826 154.479L691.429 156.838L691.181 158.317L692.66 158.566C864.88 187.492 1007.51 308.248 1064.45 473.337C1121.39 638.425 1083.52 821.433 965.755 950.376Z" fill="#8F00FF" stroke="#8F00FF" stroke-width="3" stroke-miterlimit="10" stroke-linecap="square"/>
<path d="M147.143 727.373L146.833 725.905L145.365 726.215L143.025 726.71L141.557 727.02L141.867 728.487C189.051 951.847 386.394 1111.51 614.682 1111.04L616.182 1111.03L616.179 1109.54L616.174 1107.14L616.171 1105.64L614.671 1105.65C388.935 1106.12 193.799 948.235 147.143 727.373Z" fill="#00FF0A" stroke="#00FF0A" stroke-width="3" stroke-miterlimit="10" stroke-linecap="square"/>
<path d="M250.443 319.889L249.297 318.921L247.47 317.377L246.325 316.409L245.357 317.554C149.303 431.221 111.111 582.869 141.87 728.472L142.18 729.939L143.647 729.629L145.987 729.135L147.455 728.825L147.145 727.357C116.731 583.382 154.495 433.43 249.475 321.034L250.443 319.889Z" fill="#DBFF00" stroke="#DBFF00" stroke-width="3" stroke-miterlimit="10" stroke-linecap="square"/>
<path d="M614.671 1105.64L613.171 1105.65L613.174 1107.15L613.179 1109.54L613.182 1111.04L614.682 1111.04C749.804 1110.75 878.608 1053.79 969.734 954.022L970.745 952.914L969.638 951.903L967.872 950.29L966.764 949.278L965.752 950.386C875.646 1049.04 748.282 1105.37 614.671 1105.64Z" fill="#0085FF" stroke="#0085FF" stroke-width="3" stroke-miterlimit="10" stroke-linecap="square"/>
<path d="M549.939 156.267L551.427 156.084L551.245 154.595L550.954 152.222L550.772 150.733L549.283 150.915C428.621 165.691 323.795 224.735 245.357 317.556L244.388 318.702L245.534 319.67L247.361 321.214L248.507 322.182L249.475 321.036C327.061 229.223 430.663 170.872 549.939 156.267Z" fill="#FF8A00" stroke="#FF8A00" stroke-width="3" stroke-miterlimit="10" stroke-linecap="square"/>
<path d="M155.314 497.393L155.727 495.951L154.286 495.538L151.987 494.879L150.545 494.465L150.131 495.907C128.433 571.592 125.596 651.438 141.869 728.471L142.179 729.939L143.647 729.629L145.987 729.135L147.455 728.825L147.145 727.357C131.053 651.185 133.858 572.231 155.314 497.393Z" fill="#DBFF00" stroke="#DBFF00" stroke-width="3" stroke-miterlimit="10" stroke-linecap="square"/>
<g opacity="0.1">
<path d="M966.234 953.484L964.477 951.88C1082.02 823.182 1119.81 640.525 1062.98 475.752C1006.15 310.979 863.794 190.453 691.904 161.582L692.298 159.235C865.048 188.251 1008.12 309.379 1065.23 474.976C1122.35 640.573 1084.37 824.144 966.234 953.484Z" fill="#8F00FF"/>
<path d="M728.624 729.546L728.109 729.075C762.561 691.355 773.637 637.819 756.981 589.525C740.324 541.231 698.6 505.905 648.22 497.443L648.335 496.755C698.967 505.26 740.9 540.762 757.64 589.297C774.38 637.833 763.249 691.637 728.624 729.546Z" fill="#8F00FF"/>
<path d="M964.477 951.88C1082.02 823.182 1119.81 640.525 1062.98 475.752C1006.15 310.979 863.794 190.453 691.904 161.582L648.335 496.755C698.967 505.26 740.9 540.762 757.64 589.297C774.38 637.833 763.249 691.637 728.624 729.546L964.477 951.88Z" fill="#8F00FF"/>
</g>
<g opacity="0.1">
<path d="M145.103 729.781L147.431 729.289C193.998 949.729 386.195 1107.31 611.5 1106.84L614.071 1109.22C387.64 1109.69 191.903 951.323 145.103 729.781Z" fill="#00FF0A"/>
<path d="M487.955 663.979L488.637 663.835C502.286 728.445 559.37 774.631 625.406 774.493L625.407 775.191C559.041 775.329 501.672 728.912 487.955 663.979Z" fill="#00FF0A"/>
<path d="M147.431 729.289C193.998 949.729 386.195 1107.31 611.5 1106.84L625.407 775.191C559.041 775.329 501.672 728.912 487.955 663.979L147.431 729.289Z" fill="#00FF0A"/>
</g>
<g opacity="0.1">
<path d="M247.748 322.207L249.566 323.743C154.768 435.924 117.075 585.589 147.431 729.289L145.103 729.781C114.595 585.363 152.476 434.949 247.748 322.207Z" fill="#DBFF00"/>
<path d="M518.04 544.523L518.573 544.973C490.788 577.853 479.74 621.719 488.638 663.837L487.955 663.981C479.014 621.653 490.116 577.567 518.04 544.523Z" fill="#DBFF00"/>
<path d="M249.566 323.743C154.768 435.924 117.075 585.589 147.431 729.289L487.955 663.981C479.014 621.653 490.116 577.567 518.04 544.523L249.566 323.743Z" fill="#DBFF00"/>
</g>
<g opacity="0.1">
<path d="M625.407 775.192L625.406 774.494C664.492 774.413 701.75 757.936 728.11 729.076L728.625 729.546C702.134 758.55 664.689 775.11 625.407 775.192Z" fill="#0085FF"/>
<path d="M614.071 1109.22L611.5 1106.84C744.856 1106.56 874.543 1050.35 964.477 951.878L966.234 953.483C875.85 1052.44 748.094 1108.94 614.071 1109.22Z" fill="#0085FF"/>
<path d="M728.625 729.546C702.134 758.55 664.689 775.11 625.407 775.192L611.5 1106.84C744.856 1106.56 874.543 1050.35 964.477 951.878L728.625 729.546Z" fill="#0085FF"/>
</g>
<g opacity="0.1">
<path d="M554.937 156.174L555.226 158.536C436.16 173.117 326.991 232.122 249.566 323.744L247.748 322.208C325.561 230.128 435.275 170.828 554.937 156.174Z" fill="#FF8A00"/>
<path d="M608.075 495.859L608.16 496.551C573.263 500.825 541.266 518.119 518.573 544.973L518.04 544.522C540.847 517.534 573.003 500.154 608.075 495.859Z" fill="#FF8A00"/>
<path d="M555.226 158.536C436.16 173.117 326.991 232.122 249.566 323.744L518.04 544.522C540.847 517.534 573.003 500.154 608.075 495.859L555.226 158.536Z" fill="#FF8A00"/>
</g>
</svg>
