<svg width="26" height="28" viewBox="0 0 26 28" fill="none" xmlns="http://www.w3.org/2000/svg">
<path d="M23.4999 6.55056C23.9582 6.80467 24.3387 7.17324 24.6024 7.61835C24.866 8.06345 25.0032 8.56902 24.9999 9.08301V18.5524C24.9999 19.6041 24.4093 20.5739 23.4559 21.0848L14.456 26.6359C14.0098 26.8748 13.509 27 13 27C12.491 27 11.9902 26.8748 11.544 26.6359L2.544 21.0848C2.07755 20.8363 1.68816 20.4701 1.41655 20.0246C1.14493 19.5791 1.00107 19.0706 1 18.5524V9.08171C1 8.02999 1.59067 7.06147 2.544 6.55056L11.544 1.37647C12.0034 1.12952 12.5194 1 13.044 1C13.5685 1 14.0846 1.12952 14.544 1.37647L23.5439 6.55056H23.4999Z" stroke="#FF7A00" stroke-width="2" stroke-linecap="round" stroke-linejoin="round"/>
<path d="M8.99998 13.9997C8.99998 15.0341 9.42141 16.0261 10.1715 16.7575C10.9217 17.4889 11.9391 17.8998 13 17.8998C14.0608 17.8998 15.0782 17.4889 15.8284 16.7575C16.5785 16.0261 17 15.0341 17 13.9997C17 12.9653 16.5785 11.9733 15.8284 11.2419C15.0782 10.5105 14.0608 10.0996 13 10.0996C11.9391 10.0996 10.9217 10.5105 10.1715 11.2419C9.42141 11.9733 8.99998 12.9653 8.99998 13.9997Z" stroke="#FF7A00" stroke-width="2" stroke-linecap="round" stroke-linejoin="round"/>
</svg>
