<svg width="26" height="26" viewBox="0 0 26 26" fill="none" xmlns="http://www.w3.org/2000/svg">
<path d="M1.80013 9H24.2001M1.80013 17H24.2001M12.3335 1C10.0873 4.59948 8.89648 8.75715 8.89648 13C8.89648 17.2428 10.0873 21.4005 12.3335 25M13.6667 1C15.9129 4.59948 17.1037 8.75715 17.1037 13C17.1037 17.2428 15.9129 21.4005 13.6667 25M1 13C1 14.5759 1.31039 16.1363 1.91345 17.5922C2.5165 19.0481 3.40042 20.371 4.51472 21.4853C5.62902 22.5996 6.95189 23.4835 8.4078 24.0866C9.86371 24.6896 11.4241 25 13 25C14.5759 25 16.1363 24.6896 17.5922 24.0866C19.0481 23.4835 20.371 22.5996 21.4853 21.4853C22.5996 20.371 23.4835 19.0481 24.0866 17.5922C24.6896 16.1363 25 14.5759 25 13C25 9.8174 23.7357 6.76516 21.4853 4.51472C19.2348 2.26428 16.1826 1 13 1C9.8174 1 6.76516 2.26428 4.51472 4.51472C2.26428 6.76516 1 9.8174 1 13Z" stroke="#0075FF" stroke-width="2" stroke-linecap="round" stroke-linejoin="round"/>
</svg>
