<svg width="26" height="26" viewBox="0 0 26 26" fill="none" xmlns="http://www.w3.org/2000/svg">
<path d="M13 6.33333C12.2928 6.33333 11.6145 6.05238 11.1144 5.55229C10.6143 5.05219 10.3333 4.37391 10.3333 3.66667C10.3333 2.95942 10.6143 2.28115 11.1144 1.78105C11.6145 1.28095 12.2928 1 13 1C13.7072 1 14.3855 1.28095 14.8856 1.78105C15.3857 2.28115 15.6667 2.95942 15.6667 3.66667C15.6667 4.37391 15.3857 5.05219 14.8856 5.55229C14.3855 6.05238 13.7072 6.33333 13 6.33333ZM13 6.33333V14.3333M5.66667 20.3333L13 14.3333M13 14.3333L20.3333 20.3333M1 22.3333C1 23.0406 1.28095 23.7189 1.78105 24.219C2.28115 24.719 2.95942 25 3.66667 25C4.37391 25 5.05219 24.719 5.55229 24.219C6.05238 23.7189 6.33333 23.0406 6.33333 22.3333C6.33333 21.6261 6.05238 20.9478 5.55229 20.4477C5.05219 19.9476 4.37391 19.6667 3.66667 19.6667C2.95942 19.6667 2.28115 19.9476 1.78105 20.4477C1.28095 20.9478 1 21.6261 1 22.3333ZM19.6667 22.3333C19.6667 23.0406 19.9476 23.7189 20.4477 24.219C20.9478 24.719 21.6261 25 22.3333 25C23.0406 25 23.7189 24.719 24.219 24.219C24.719 23.7189 25 23.0406 25 22.3333C25 21.6261 24.719 20.9478 24.219 20.4477C23.7189 19.9476 23.0406 19.6667 22.3333 19.6667C21.6261 19.6667 20.9478 19.9476 20.4477 20.4477C19.9476 20.9478 19.6667 21.6261 19.6667 22.3333Z" stroke="#00CA5D" stroke-width="2" stroke-linecap="round" stroke-linejoin="round"/>
</svg>
