<svg width="26" height="26" viewBox="0 0 26 26" fill="none" xmlns="http://www.w3.org/2000/svg">
<path d="M8.50072 17.5018L17.5013 8.50114M11.5009 4.00069L12.1955 3.19663C13.6023 1.79001 15.5102 0.999859 17.4996 1C19.489 1.00014 21.3968 1.79056 22.8034 3.19738C24.21 4.6042 25.0001 6.51218 25 8.50158C24.9999 10.491 24.2094 12.3988 22.8026 13.8055L22.0016 14.5015M14.5011 22.0022L13.9056 22.8033C12.4823 24.2107 10.5615 25 8.55996 25C6.55839 25 4.63758 24.2107 3.21436 22.8033C2.51285 22.1096 1.95592 21.2837 1.57582 20.3733C1.19572 19.4629 1 18.4861 1 17.4996C1 16.513 1.19572 15.5363 1.57582 14.6259C1.95592 13.7155 2.51285 12.8896 3.21436 12.1959L4.00041 11.5014" stroke="white" stroke-width="2" stroke-linecap="round" stroke-linejoin="round"/>
</svg>
