<svg width="28" height="27" viewBox="0 0 28 27" fill="none" xmlns="http://www.w3.org/2000/svg">
<path d="M14 7.61401C13.2338 7.61401 12.499 7.29794 11.9572 6.73533C11.4155 6.17273 11.1111 5.40966 11.1111 4.61401C11.1111 3.81836 11.4155 3.0553 11.9572 2.49269C12.499 1.93008 13.2338 1.61401 14 1.61401C14.7662 1.61401 15.501 1.93008 16.0428 2.49269C16.5845 3.0553 16.8889 3.81836 16.8889 4.61401C16.8889 5.40966 16.5845 6.17273 16.0428 6.73533C15.501 7.29794 14.7662 7.61401 14 7.61401ZM14 7.61401V19.614M14 19.614C14.7662 19.614 15.501 19.9301 16.0428 20.4927C16.5845 21.0553 16.8889 21.8184 16.8889 22.614C16.8889 23.4097 16.5845 24.1727 16.0428 24.7353C15.501 25.2979 14.7662 25.614 14 25.614C13.2338 25.614 12.499 25.2979 11.9572 24.7353C11.4155 24.1727 11.1111 23.4097 11.1111 22.614C11.1111 21.8184 11.4155 21.0553 11.9572 20.4927C12.499 19.9301 13.2338 19.614 14 19.614ZM5.78975 14.358L12.0991 6.87001M22.2102 14.358L15.9038 6.87303M6.77778 16.614C6.77778 15.8184 6.47341 15.0553 5.93164 14.4927C5.38987 13.9301 4.65507 13.614 3.88889 13.614C3.12271 13.614 2.38791 13.9301 1.84614 14.4927C1.30436 15.0553 1 15.8184 1 16.614C1 17.4097 1.30436 18.1727 1.84614 18.7353C2.38791 19.2979 3.12271 19.614 3.88889 19.614C4.65507 19.614 5.38987 19.2979 5.93164 18.7353C6.47341 18.1727 6.77778 17.4097 6.77778 16.614ZM27 16.614C27 15.8184 26.6956 15.0553 26.1539 14.4927C25.6121 13.9301 24.8773 13.614 24.1111 13.614C23.3449 13.614 22.6101 13.9301 22.0684 14.4927C21.5266 15.0553 21.2222 15.8184 21.2222 16.614C21.2222 17.4097 21.5266 18.1727 22.0684 18.7353C22.6101 19.2979 23.3449 19.614 24.1111 19.614C24.8773 19.614 25.6121 19.2979 26.1539 18.7353C26.6956 18.1727 27 17.4097 27 16.614Z" stroke="white" stroke-width="2" stroke-linecap="round" stroke-linejoin="round"/>
</svg>
